<svg xmlns="http://www.w3.org/2000/svg" width="70.068" height="71" viewBox="0 0 70.068 71">
  <g id="Group_43" data-name="Group 43" transform="translate(-1204.332 884.702)">
    <path id="Path_24" data-name="Path 24" d="M1232.039-884.7c.251.106.506.2.753.319a3.569,3.569,0,0,1,1.953,4.095.528.528,0,0,0,.314.7c3.2,1.786,6.395,3.586,9.6,5.365a1.855,1.855,0,0,0,.852.2c1.778.017,3.557,0,5.336.01a2.911,2.911,0,0,1,3.1,3.064q.015,10.325,0,20.65a2.861,2.861,0,0,1-3.045,3.037q-19.611.015-39.222,0a2.885,2.885,0,0,1-3.067-3.089q0-10.291,0-20.581a2.928,2.928,0,0,1,3.089-3.081c1.755-.006,3.511.014,5.266-.014a2.447,2.447,0,0,0,1.1-.281c3.047-1.685,6.076-3.4,9.121-5.094.484-.269.724-.472.592-1.145a3.491,3.491,0,0,1,2.3-3.961c.146-.057.286-.127.429-.191Zm-.729,12.811h-19.192c-1.221,0-1.409.188-1.41,1.4q0,9.839,0,19.677c0,1.251.208,1.463,1.43,1.463h38.316c1.183,0,1.408-.227,1.408-1.413q0-9.839,0-19.678c0-1.277-.168-1.449-1.428-1.449Zm-9.314-2.17h18.378a.175.175,0,0,0-.118-.189c-2.212-1.24-4.42-2.486-6.643-3.707a.875.875,0,0,0-.68.006,3.736,3.736,0,0,1-3.274,0,.809.809,0,0,0-.621-.053C1226.744-876.737,1224.462-875.447,1222-874.061Zm9.282-5.637a1.448,1.448,0,0,0,1.458-1.434,1.484,1.484,0,0,0-1.446-1.467,1.513,1.513,0,0,0-1.468,1.453A1.473,1.473,0,0,0,1231.279-879.7Z" transform="translate(-3.687 0)" fill="#d23022"/>
    <path id="Path_25" data-name="Path 25" d="M1249.148-704.056a7.163,7.163,0,0,0,4.614,1.77c3.164.05,6.331.059,9.495,0a7.818,7.818,0,0,0,5.635-2.737c.237-.252.45-.529.7-.769a1.012,1.012,0,0,1,1.434-.1,1,1,0,0,1,.146,1.477,10.748,10.748,0,0,1-6.323,4.074,7.05,7.05,0,0,1-1.372.159c-3.326.013-6.653.046-9.979-.007a8.932,8.932,0,0,1-5.531-2.087.663.663,0,0,0-.948-.049q-8.581,5.675-17.534.576a.812.812,0,0,0-.98.018,15.865,15.865,0,0,1-23.8-10.092,15.871,15.871,0,0,1,12.955-19.009,9.2,9.2,0,0,1,.959-.125c.754-.035,1.227.334,1.267.96.039.6-.349.98-1.058,1.129a21.664,21.664,0,0,0-3.352.795c-5.358,2.063-8.277,6.058-8.9,11.711a13.625,13.625,0,0,0,10.922,14.619,13.667,13.667,0,0,0,16.137-10.8c1.476-7.612-2.961-14.343-10.6-16.087-.8-.182-1.191-.7-1.035-1.36.143-.607.691-.868,1.488-.709a2.537,2.537,0,0,1,.472.1c1.527.632,3.046,1.284,4.58,1.9a1.143,1.143,0,0,0,.845.059c5.82-3.336,11.573-3.261,17.277.277.058.036.124.061.066.033,1.5-1.4,2.935-2.8,4.427-4.129.668-.6,1.465-1.046,2.164-1.612a1.22,1.22,0,0,0,.41-.766c.194-2.452-.506-4.8-.893-7.184-.4-2.456-.883-4.9-1.3-7.352-.282-1.656.465-2.517,2.133-2.518q4.886,0,9.772,0a1.862,1.862,0,0,1,2.069,2.434c-.7,4.112-1.448,8.216-2.127,12.332a12.442,12.442,0,0,0-.056,2.554c.009.2.306.421.517.564a26.078,26.078,0,0,1,7.283,7.026,19.053,19.053,0,0,1,3.249,10.559,21.606,21.606,0,0,1-.539,6.939c-.119.373-.224.752-.373,1.113a1.041,1.041,0,0,1-1.342.666,1,1,0,0,1-.635-1.344c1.019-2.792.9-5.67.7-8.555a16.766,16.766,0,0,0-3.878-9.662,25.218,25.218,0,0,0-6-5.193,1.524,1.524,0,0,0-.771-.224c-2.01-.018-4.02-.012-6.03-.006a1.042,1.042,0,0,0-.531.1,24.713,24.713,0,0,0-6.4,5.65A16.1,16.1,0,0,1,1249.148-704.056Zm-14-16.584a1.756,1.756,0,0,1,.332-.2,1.613,1.613,0,0,0,1.345-1.915c-.059-.561.446-.881,1.039-.86a.973.973,0,0,1,1,.95,8.871,8.871,0,0,1,.009,1.1,16.4,16.4,0,0,1,1.713.58c.643.3.789.756.5,1.289-.311.576-.75.594-1.281.3a3.669,3.669,0,0,0-2.62-.333,1.364,1.364,0,0,0-1.163,1.132,1.407,1.407,0,0,0,.631,1.5,4.817,4.817,0,0,0,.791.419c.631.28,1.279.523,1.9.818a3.6,3.6,0,0,1,2.16,3.822,3.358,3.358,0,0,1-2.468,3.235.693.693,0,0,0-.163.119c0,.171,0,.332,0,.493-.005,1.107-.34,1.612-1.067,1.608-.692,0-.994-.482-1.061-1.557a.832.832,0,0,0-.355-.611,12.1,12.1,0,0,0-1.472-.5l-1.3,2.556a9.482,9.482,0,0,0,11.735-2.665,9.553,9.553,0,0,0-.395-12.166,9.342,9.342,0,0,0-11.322-2.184Zm-4.369-6.305a9.173,9.173,0,0,1,1.015.955.738.738,0,0,0,1.092.233,10.845,10.845,0,0,1,6.667-1,11.723,11.723,0,0,1,9.749,13.578,11.682,11.682,0,0,1-13.6,9.414c-1.18-.247-2.318-.694-3.336-1.006l-1.533,1.314a13.594,13.594,0,0,0,17.238-2.636,13.741,13.741,0,0,0,.151-18.062C1243.951-729.169,1236.168-730.451,1230.781-726.946Zm30.576-11.1,2.049-11.664h-9.777l2.068,11.664Zm-25.227,22.907c-.146,1.084-.258,2.108-.43,3.121-.162.952-.057,1.187.894,1.478a3.406,3.406,0,0,0,.883.13c1.133.036,1.884-.4,2.1-1.194a1.994,1.994,0,0,0-1.1-2.488C1237.733-714.485,1236.938-714.786,1236.129-715.142Zm25.049-20.684h-5.23v.938h5.23Z" transform="translate(0 -114.362)" fill="#d23022"/>
    <path id="Path_26" data-name="Path 26" d="M1245.684-571.669c7.489-.016,12.983,6.008,12.109,12.947a11.066,11.066,0,0,1-7.97,9.773c-4.657,1.49-8.776.279-12.2-3.221-.048-.049-.091-.1-.136-.157-.617-.725-.665-1.293-.148-1.759s1.088-.341,1.724.341a9.291,9.291,0,0,0,9.742,2.9,9.133,9.133,0,0,0,6.784-7.394,9.464,9.464,0,0,0-7.867-11.185,9.488,9.488,0,0,0-10.907,7.949,10.006,10.006,0,0,0,.27,4.184,1.022,1.022,0,0,1-1.176,1.331c-.569-.087-.786-.5-.916-1a11.244,11.244,0,0,1,1.526-9.462A11.15,11.15,0,0,1,1245.684-571.669Z" transform="translate(-26.032 -269.554)" fill="#d23022"/>
    <path id="Path_27" data-name="Path 27" d="M1295.095-546.282a16.321,16.321,0,0,1,1.778.632.82.82,0,0,1,.423,1.262.79.79,0,0,1-1.226.312,3.718,3.718,0,0,0-2.616-.368,1.385,1.385,0,0,0-1.22,1.158,1.364,1.364,0,0,0,.661,1.484,11.76,11.76,0,0,0,1.293.651c.4.181.816.318,1.214.5a3.606,3.606,0,0,1,2.336,3.584,3.429,3.429,0,0,1-2.3,3.5.749.749,0,0,0-.318.5,6.1,6.1,0,0,0-.022.759,1.075,1.075,0,0,1-1.029,1.024.961.961,0,0,1-1.047-.966c.067-.915-.294-1.28-1.157-1.469a4.075,4.075,0,0,1-1.331-.827,1.21,1.21,0,0,1-.359-.5.965.965,0,0,1,.327-1.232c.4-.306.744-.1,1.032.2a2.944,2.944,0,0,0,2.556.956,1.769,1.769,0,0,0,1.709-1.17,1.979,1.979,0,0,0-.747-2.278,11.573,11.573,0,0,0-1.475-.749c-.5-.237-1.027-.42-1.507-.689a3.253,3.253,0,0,1-1.488-4.158,2.829,2.829,0,0,1,1.851-1.743.648.648,0,0,0,.544-.792,2.813,2.813,0,0,1,.025-.69.974.974,0,0,1,1.016-.93,1.017,1.017,0,0,1,1.071.958A10.61,10.61,0,0,1,1295.095-546.282Z" transform="translate(-73.833 -289.657)" fill="#d23022"/>
    <path id="Path_28" data-name="Path 28" d="M1446.859-755.114v-2.044c0-1.316-.027-2.634.019-3.949.012-.339.193-.9.4-.958a3.493,3.493,0,0,1,1.517.069c.129.027.259.419.26.644.016,3.51.022,7.021-.009,10.531a1.1,1.1,0,0,1-.468.8,1.3,1.3,0,0,1-1.548-.168,2.685,2.685,0,0,1-.561-.776c-1.082-2-2.151-4.016-3.319-6.2-.032.376-.062.562-.063.748,0,1.8,0,3.6,0,5.4,0,.854-.275,1.13-1.107,1.138s-1.119-.254-1.12-1.106q-.005-5.023,0-10.046c0-.466-.06-.986.54-1.124a1.582,1.582,0,0,1,1.73.349,5.164,5.164,0,0,1,.585.935c.951,1.818,1.891,3.642,2.837,5.463.058.111.129.215.194.322Z" transform="translate(-203.671 -105.441)" fill="#d23022"/>
    <path id="Path_29" data-name="Path 29" d="M1300.287-755.6c0-.97-.029-1.94.006-2.908a3.125,3.125,0,0,1,2.687-3.208,7.127,7.127,0,0,1,2.6.031,3.1,3.1,0,0,1,2.594,3.146c.045,1.938.06,3.88,0,5.817-.074,2.272-2.044,3.66-4.581,3.312a3.383,3.383,0,0,1-3.309-3.7c-.023-.83,0-1.662,0-2.493Zm2.205-.028c0,.831-.014,1.663,0,2.494a1.607,1.607,0,0,0,1.735,1.8,1.626,1.626,0,0,0,1.737-1.743q.044-2.563,0-5.127a1.577,1.577,0,0,0-1.748-1.705,1.562,1.562,0,0,0-1.721,1.719C1302.476-757.334,1302.494-756.479,1302.492-755.625Z" transform="translate(-82.61 -105.816)" fill="#d23022"/>
    <path id="Path_30" data-name="Path 30" d="M1367.638-753.068c-.218.74-.4,1.406-.613,2.062-.187.58-.588.736-1.274.53-.714-.214-1-.59-.818-1.175q1.577-5.184,3.174-10.363c.217-.708.782-.853,1.413-.862.657-.009,1.27.125,1.5.852q1.6,5.144,3.164,10.3c.195.639-.094,1.045-.824,1.258-.7.2-1.1.016-1.3-.613-.007-.022-.011-.045-.018-.067-.19-.612-.2-1.472-.618-1.77-.451-.323-1.276-.132-1.939-.147C1368.881-753.079,1368.283-753.068,1367.638-753.068Zm1.979-6.672-.12-.015-1.387,4.881h2.883Z" transform="translate(-138.251 -104.906)" fill="#d23022"/>
    <path id="Path_31" data-name="Path 31" d="M1245.821-751.642c1.319,0,2.561,0,3.8,0,.708,0,1.029.325,1.01,1-.018.649-.316.933-1,.935-1.64,0-3.281.006-4.921,0-.872,0-1.1-.242-1.1-1.112q0-5.095,0-10.189c0-.8.258-1.043,1.1-1.048.856,0,1.112.223,1.113,1.018C1245.823-757.947,1245.821-754.852,1245.821-751.642Z" transform="translate(-33.821 -105.608)" fill="#d23022"/>
  </g>
</svg>
