<svg xmlns="http://www.w3.org/2000/svg" width="70.982" height="71" viewBox="0 0 70.982 71">
  <g id="Group_42" data-name="Group 42" transform="translate(-952.574 198.514)">
    <path id="Path_19" data-name="Path 19" d="M969.884-127.514a1.79,1.79,0,0,1-.725-1.668c.037-1.894,0-3.79.022-5.685a.842.842,0,0,0-.463-.828,23.389,23.389,0,0,1-10.07-12.537.689.689,0,0,0-.785-.558c-1.224.034-2.45.017-3.675.01-1.174-.007-1.61-.432-1.612-1.578q-.007-4.368,0-8.737c0-1.133.424-1.554,1.542-1.557,1.2,0,2.4,0,3.669,0,.1-.376.208-.743.3-1.112a23.226,23.226,0,0,1,6.994-11.636,1.424,1.424,0,0,0,.525-1.185c-.025-2.727-.014-5.455-.011-8.182,0-1.174.5-1.618,1.684-1.533a10.655,10.655,0,0,1,8.45,4.843c.112.163.353.367.511.349.865-.1,1.722-.258,2.6-.4a13.181,13.181,0,0,1,4-16.566,13.134,13.134,0,0,1,15.624.274,13.172,13.172,0,0,1,3.62,16.267c1,.182,2,.329,2.975.546a23.614,23.614,0,0,1,18.233,19.347c.071.449.177.892.267,1.337v4.577c-.058.338-.12.675-.174,1.013a23.539,23.539,0,0,1-11.158,17.016.892.892,0,0,0-.469.889c.021,1.847-.023,3.7.025,5.542a2,2,0,0,1-.706,1.751h-11.65a2.01,2.01,0,0,1-.7-1.826c.051-.956.012-1.917.012-2.861H982.209c0,1.044-.031,2.056.01,3.064a1.644,1.644,0,0,1-.824,1.623Zm32.4-45H978.664v-2.35h4.157c-.737-.7-1.37-1.337-2.05-1.919a1.339,1.339,0,0,0-.878-.353c-1.282.138-2.563.321-3.831.555-1.122.207-1.388.117-1.942-.9a8.214,8.214,0,0,0-5.339-4.19c-.232-.061-.476-.075-.786-.122,0,.353,0,.6,0,.856,0,2.4-.01,4.808.006,7.211a1.8,1.8,0,0,1-.655,1.516,21.1,21.1,0,0,0-7.279,12.558c-.221,1.162-.487,1.371-1.671,1.374-1.1,0-2.207,0-3.337,0v7.073h3.514c1.523,0,1.673.131,2.137,1.594A20.773,20.773,0,0,0,970.2-137.62a2.35,2.35,0,0,1,1.372,2.422c-.1,1.745-.025,3.5-.025,5.268H979.8c0-1.067-.005-2.082,0-3.1.008-1.212.372-1.585,1.571-1.585q9.084-.005,18.168,0c1.217,0,1.567.354,1.572,1.563,0,1.033,0,2.066,0,3.129h8.288c0-1.909.039-3.776-.017-5.641a1.863,1.863,0,0,1,1.082-1.881,20.987,20.987,0,0,0,9.314-10.8c.248-.623.426-1.275.665-2a4.793,4.793,0,0,1-6.2-5.652h2.252c0,.383-.012.726,0,1.067a2.414,2.414,0,0,0,.829,1.838,2.271,2.271,0,0,0,2.4.393,2.116,2.116,0,0,0,1.443-1.94,21.626,21.626,0,0,0-.511-6.19,21.461,21.461,0,0,0-18.137-16.321c-1.276-.138-2.381-.16-3.193,1.055a6.232,6.232,0,0,1-1.177,1.055l.07.143h4.066Zm-22.435-12.971a10.624,10.624,0,0,0,10.585,10.641,10.658,10.658,0,0,0,10.664-10.647,10.653,10.653,0,0,0-10.667-10.641A10.635,10.635,0,0,0,979.848-185.482Z" transform="translate(0 0)" fill="#d23022"/>
    <path id="Path_20" data-name="Path 20" d="M1656.854-186.481a1.176,1.176,0,0,1-1.179-.981,4.583,4.583,0,0,0-3.757-3.771,1.14,1.14,0,0,1-.987-1.164,1.176,1.176,0,0,1,1.042-1.2,4.485,4.485,0,0,0,3.677-3.666,1.179,1.179,0,0,1,1.19-1.052,1.167,1.167,0,0,1,1.2,1.037,4.519,4.519,0,0,0,3.736,3.7,1.147,1.147,0,0,1,.991,1.17,1.137,1.137,0,0,1-.974,1.175,4.6,4.6,0,0,0-3.77,3.761A1.186,1.186,0,0,1,1656.854-186.481Zm-.074-4.533,1.448-1.337-1.42-1.415-1.363,1.3Z" transform="translate(-645.088 -0.183)" fill="#d23022"/>
    <path id="Path_21" data-name="Path 21" d="M1148.659,239.742a4.726,4.726,0,1,1-4.728-4.762A4.728,4.728,0,0,1,1148.659,239.742Zm-4.714-2.35a2.318,2.318,0,0,0-2.362,2.356,2.364,2.364,0,0,0,2.338,2.334,2.4,2.4,0,0,0,2.378-2.377A2.351,2.351,0,0,0,1143.945,237.392Z" transform="translate(-172.398 -400.428)" fill="#d23022"/>
    <path id="Path_22" data-name="Path 22" d="M1364.119-120.113v2.269a5.141,5.141,0,0,0-3.3,1.408,4.757,4.757,0,0,0-1.409,3.313h-2.3C1356.8-117.078,1360.7-120.377,1364.119-120.113Z" transform="translate(-373.665 -72.407)" fill="#d23022"/>
    <path id="Path_23" data-name="Path 23" d="M1448.98-20.078c-.012-.125-.035-.259-.036-.392,0-.6,0-1.2,0-1.835a4.883,4.883,0,0,0,4.788-4.729h2.295C1456.3-23.406,1452.452-19.6,1448.98-20.078Z" transform="translate(-458.506 -158.4)" fill="#d23022"/>
  </g>
</svg>
