<svg id="Group_41" data-name="Group 41" xmlns="http://www.w3.org/2000/svg" width="71.956" height="72" viewBox="0 0 71.956 72">
  <path id="Path_14" data-name="Path 14" d="M-98.818-856.257c-1.023-.4-1.16-.6-1.161-1.671,0-.989,0-1.977,0-3.067-.294,0-.55-.015-.8,0-.659.047-1.234-.1-1.46-.789-.236-.72.176-1.162.736-1.56,2.146-1.526,4.273-3.079,6.407-4.622l13.749-9.931c.975-.7,1.23-.708,2.19-.015q9.987,7.213,19.972,14.428c.234.169.555.312.66.546a1.782,1.782,0,0,1,.211,1.187,1.643,1.643,0,0,1-.957.724,4.2,4.2,0,0,1-1.249.026c0,1.065,0,2.094,0,3.124,0,1.01-.165,1.24-1.139,1.594v14.92c1.016.422,1.139.61,1.139,1.733,0,.966,0,1.931,0,3.013.376,0,.726-.008,1.076,0a1.119,1.119,0,0,1,1.24,1.2q.025,2.284,0,4.569a1.115,1.115,0,0,1-1.174,1.191c-.145.007-.29,0-.435,0H-92.6a4.515,4.515,0,0,1-.58-.011,1.129,1.129,0,0,1-1-1.144,1.122,1.122,0,0,1,.989-1.148,5.847,5.847,0,0,1,.724-.012h31.888V-834.3H-93.608c-.217,0-.436.013-.652-.006a1.126,1.126,0,0,1-1.074-1.144,1.114,1.114,0,0,1,1.056-1.157c.383-.029.771-.005,1.21-.005v-2.331c-.708,0-1.424.008-2.139,0a1.144,1.144,0,0,1-1.287-1.152,1.142,1.142,0,0,1,1.277-1.161c.312-.007.625,0,.99,0v-15.048H-96.5v.793q0,5.911,0,11.822a1.132,1.132,0,0,1-1.174,1.265,1.14,1.14,0,0,1-1.137-1.23c-.006-.169,0-.338,0-.508v-12.093Zm6.973-.024v14.914c1.021.431,1.145.62,1.146,1.735,0,.984,0,1.967,0,2.972h20.9c0-.982.039-1.922-.011-2.857-.05-.919.135-1.635,1.157-1.8v-14.928c-1.025-.437-1.145-.62-1.146-1.734,0-.984,0-1.968,0-2.974H-90.7c0,1.054,0,2.064,0,3.075S-90.864-856.634-91.844-856.281Zm11.6-19.515-17.19,12.42h34.385Zm16.2,34.505v-15h-2.235v15Zm-33.571-19.67v2.246h4.553v-2.246Zm34.749,2.264v-2.257h-4.565v2.257Zm-4.558,19.784v2.262h4.551v-2.262Z" transform="translate(130.149 878.425)" fill="#d23022"/>
  <path id="Path_15" data-name="Path 15" d="M-231.762-756.474a8.765,8.765,0,0,1-.118-4.077,5.2,5.2,0,0,1,5.736-4.014,5.207,5.207,0,0,1,4.55,5.176c0,1-.1,2.007-.159,3.1a3.289,3.289,0,0,0,.332.123,8,8,0,0,1,5.741,5.447c1.524,4.777,2.951,9.585,4.39,14.388a3.132,3.132,0,0,1-2.049,4,3.22,3.22,0,0,1-4.284-1.743c-.766-1.848-1.452-3.73-2.174-5.6a1.185,1.185,0,0,0-.334-.516c0,.292-.009.584,0,.875q.384,10.363.776,20.727a3.542,3.542,0,0,1-3.007,3.889,3.549,3.549,0,0,1-4.164-3.082c-.26-1.644-.476-3.3-.715-4.944a.569.569,0,0,0-.236-.4l-.5,3.354c-.116.788-.18,1.587-.36,2.36a3.592,3.592,0,0,1-4.126,2.711,3.521,3.521,0,0,1-3.015-3.608c.08-2.948.215-5.894.327-8.841q.245-6.414.49-12.827a2.654,2.654,0,0,0-.063-.353c-.439,1.123-.793,2.114-1.212,3.076-.631,1.448-.879,3.075-1.984,4.307a.555.555,0,0,0-.062.34q.068,8.334.137,16.667a1.126,1.126,0,0,1-1.187,1.251c-.7-.018-1.122-.5-1.123-1.316q-.006-7.435,0-14.87,0-.326-.005-.653c-.006-.355-.133-.536-.534-.621a3.9,3.9,0,0,1-1.462-.581c-.574-.416-.9-.178-1.163.28a3.271,3.271,0,0,0-.318,1.02,1.163,1.163,0,0,1-1.229,1.072,1.119,1.119,0,0,1-1.086-1.2,3.836,3.836,0,0,1,1.784-3.3c.345-.233.585-.43.557-.894a2.545,2.545,0,0,1,.189-.841c1.363-4.473,2.755-8.937,4.088-13.419a8.342,8.342,0,0,1,7.163-6.384C-232.049-756.411-231.933-756.439-231.762-756.474Zm9.553,23.835h-.009q-.183-4.854-.365-9.709c-.057-1.57-.1-3.14-.158-4.71a1.093,1.093,0,0,1,.8-1.221,1.286,1.286,0,0,1,1.474.508,2.676,2.676,0,0,1,.317.646c.446,1.146.883,2.295,1.325,3.443q1.625,4.218,3.248,8.438c.2.516.45.916,1.1.8.858-.155,1.138-.592.88-1.439q-2.085-6.847-4.178-13.692a5.976,5.976,0,0,0-5.193-4.5,1.5,1.5,0,0,0-.93.207,5.119,5.119,0,0,1-5.859-.03,1.223,1.223,0,0,0-.51-.233,6.068,6.068,0,0,0-6.558,4.058c-1.516,4.778-2.938,9.586-4.411,14.378a.84.84,0,0,0,.575,1.142c.7.294,1.177.047,1.491-.767q2.317-6,4.63-12.011c.3-.776.817-1.11,1.471-.986a1.315,1.315,0,0,1,1.011,1.467c-.029,1.063-.087,2.125-.128,3.188q-.268,7.064-.531,14.129-.2,5.58-.385,11.16A1.171,1.171,0,0,0-231.951-717a1.231,1.231,0,0,0,1.38-1.172c.053-.358.1-.717.15-1.075q.93-6.411,1.864-12.821c.121-.823.527-1.193,1.2-1.178.637.014,1.026.385,1.139,1.165q1,6.912,1.991,13.827c.136.941.594,1.326,1.429,1.246.732-.07,1.115-.545,1.085-1.429Q-221.95-725.538-222.209-732.64Zm-1.7-26.078c0-.265.019-.532,0-.8a2.944,2.944,0,0,0-2.769-2.75,2.818,2.818,0,0,0-2.931,2.367,6.707,6.707,0,0,0,.055,2.431,2.8,2.8,0,0,0,3.923,1.884A2.98,2.98,0,0,0-223.908-758.717Z" transform="translate(245.946 786.664)" fill="#d23022"/>
  <path id="Path_17" data-name="Path 17" d="M-6.668-754.26c-.17,1.939-.378,2.333-1.212,2.327-.853-.007-1.074-.425-1.18-2.3-.175-.056-.374-.119-.572-.185A4.033,4.033,0,0,1-12-756.326a1.15,1.15,0,0,1,.334-1.541,1.189,1.189,0,0,1,1.615.272,2.942,2.942,0,0,0,3.365.887,1.758,1.758,0,0,0,1.118-1.77,1.759,1.759,0,0,0-1.575-1.555,12.62,12.62,0,0,0-1.3-.024,4.079,4.079,0,0,1-4.043-3.449,4.037,4.037,0,0,1,2.861-4.476c.529-.147.656-.375.6-.846a3.016,3.016,0,0,1,0-.58,1.124,1.124,0,0,1,1.129-1.088,1.123,1.123,0,0,1,1.176,1.115c.022.384,0,.77,0,.977a23.243,23.243,0,0,1,2.328,1.487,3.3,3.3,0,0,1,.851,1.315,1.023,1.023,0,0,1-.574,1.39,1.02,1.02,0,0,1-1.453-.394c-.675-1.409-1.885-1.341-3.1-1.214a1.72,1.72,0,0,0-1.517,1.753,1.773,1.773,0,0,0,1.613,1.676,10.948,10.948,0,0,0,1.159.019,4.085,4.085,0,0,1,4.162,3.479,4.067,4.067,0,0,1-3.1,4.516C-6.445-754.353-6.532-754.312-6.668-754.26Z" transform="translate(57.77 791.414)" fill="#d23022"/>
  <path id="Path_18" data-name="Path 18" d="M-6.441-844.858a3.454,3.454,0,0,1,3.491-3.483,3.454,3.454,0,0,1,3.464,3.509,3.46,3.46,0,0,1-3.529,3.447A3.451,3.451,0,0,1-6.441-844.858Zm4.633-.035a1.208,1.208,0,0,0-1.183-1.126,1.209,1.209,0,0,0-1.126,1.184,1.21,1.21,0,0,0,1.184,1.126A1.212,1.212,0,0,0-1.808-844.893Z" transform="translate(52.862 854.172)" fill="#d23022"/>
</svg>
