<svg id="Group_40" data-name="Group 40" xmlns="http://www.w3.org/2000/svg" width="49.286" height="70.366" viewBox="0 0 49.286 70.366">
  <path id="Path_10" data-name="Path 10" d="M458.659-679.113c-.571-.135-1.144-.263-1.713-.406a13.373,13.373,0,0,1-10.09-12.833c-.009-1.025,0-2.05,0-3.15h-.806c-3.161,0-6.322.013-9.483,0a5.888,5.888,0,0,1-5.994-4.736,6.9,6.9,0,0,1-.109-1.434c-.005-13.881.02-27.762-.022-41.643a5.985,5.985,0,0,1,4.943-6.093,6.448,6.448,0,0,1,1.026-.063q11.648,0,23.3,0a5.849,5.849,0,0,1,5.95,5.965c.014,3.527-.008,7.055.021,10.582a1.926,1.926,0,0,0,.387,1.1q5.312,6.7,10.67,13.367a13.28,13.28,0,0,1,2.989,8.631c-.026,8.658-.009,17.317-.009,25.975,0,1.031-.032,2.063.011,3.092a1.725,1.725,0,0,1-.724,1.65Zm18.667-2.342c.013-.257.03-.435.03-.614q0-14.086-.006-28.172a9.906,9.906,0,0,0-2.075-6.2c-2.134-2.748-4.329-5.449-6.5-8.168-.993-1.244-1.991-2.485-3.084-3.849-.017.31-.033.459-.033.608,0,5.657-.007,11.314.015,16.971a1.463,1.463,0,0,0,.367.888c1.152,1.274,2.341,2.514,3.515,3.767.15.16.288.331.456.525l-1.77,1.647a3.234,3.234,0,0,0-.266-.394q-5.551-5.909-11.108-11.812-2.143-2.276-4.29-4.548a2.972,2.972,0,0,0-3.134-.875,2.918,2.918,0,0,0-2.127,2.3,3.175,3.175,0,0,0,.872,2.9q4.963,5.834,9.885,11.7a2.68,2.68,0,0,1,.535,1.479c.076,1.324-.007,2.657.041,3.984a12.889,12.889,0,0,0,5.364,10.267,34.994,34.994,0,0,0,3.18,1.92l-.789,2.078c-.3-.118-.538-.2-.764-.3a15.565,15.565,0,0,1-8.615-9.536c-.154-.458-.337-.644-.845-.631-1.511.038-3.023.014-4.535.014h-2.53a39.606,39.606,0,0,0,.445,5.511,10.842,10.842,0,0,0,10.789,8.532c4.993.018,9.986,0,14.979,0Zm-26.967-65.651c-.258-.012-.482-.031-.7-.031q-6.459,0-12.918,0a3.57,3.57,0,0,0-3.922,3.914c0,13.811.022,27.622-.025,41.432a3.732,3.732,0,0,0,3.881,3.907c4.327-.082,8.657-.023,12.986-.025.223,0,.445-.02.7-.032.017-.175.041-.308.041-.44,0-3.8.01-7.6-.013-11.406a1.472,1.472,0,0,0-.352-.839c-1.353-1.644-2.8-3.213-4.086-4.909a5.4,5.4,0,0,1,2.882-8.441c.5-.14,1.017-.19,1.532-.282Zm8.309.01c-.013.216-.033.394-.033.573q0,14.084.014,28.169a1.461,1.461,0,0,0,.354.894c1.215,1.34,2.47,2.644,3.7,3.971a2.889,2.889,0,0,1,.332.585l.258-.185v-.52q0-14.84-.009-29.68a4.8,4.8,0,0,0-.2-1.417C462.529-746.466,461.019-747.283,458.668-747.1Zm-2.493,26.658v-26.655h-3.43v.858c0,7.187.01,14.374-.015,21.561a1.64,1.64,0,0,0,.8,1.609,12.127,12.127,0,0,1,1.774,1.706C455.575-721.091,455.827-720.809,456.175-720.438Zm.052,22.494c0-1.747,0-3.456,0-5.165a.531.531,0,0,0-.1-.318c-1.076-1.287-2.161-2.568-3.329-3.951v9.433Z" transform="translate(-430.441 749.479)" fill="#d23022"/>
  <path id="Path_11" data-name="Path 11" d="M471.714-534.166c0,1.1.007,2.2,0,3.295-.008.99-.444,1.432-1.42,1.435q-3.295.009-6.59,0a1.232,1.232,0,0,1-1.416-1.374q-.025-3.329,0-6.658a1.222,1.222,0,0,1,1.355-1.373q3.363-.031,6.727,0a1.217,1.217,0,0,1,1.343,1.379C471.723-536.362,471.714-535.264,471.714-534.166Zm-2.442,2.342V-536.4h-4.54v4.578Z" transform="translate(-456.429 577.528)" fill="#d23022"/>
  <path id="Path_12" data-name="Path 12" d="M464.872-702.177h-2.315v-15.205h2.315Z" transform="translate(-456.66 723.275)" fill="#d23022"/>
  <path id="Path_13" data-name="Path 13" d="M494.5-708.024v-9.3h2.284v9.3Z" transform="translate(-482.742 723.231)" fill="#d23022"/>
</svg>
