<svg xmlns="http://www.w3.org/2000/svg" width="47" height="47" viewBox="0 0 47 47">
  <g id="Group_3" data-name="Group 3" transform="translate(-2354 -1265)">
    <circle id="Ellipse_2" data-name="Ellipse 2" cx="23.5" cy="23.5" r="23.5" transform="translate(2354 1265)" fill="#d23022"/>
    <path id="Path_6" data-name="Path 6" d="M-547.349,509.564c-.241-.123-.445-.228-.65-.331-.427-.214-.856-.421-1.28-.64a.9.9,0,0,1-.526-.858c0-2.072,0-4.144,0-6.216a.9.9,0,0,1,1.247-.885c1.716.587,3.427,1.185,5.141,1.778l17.938,6.207c.1.034.195.067.289.107a.887.887,0,0,1,.586.843.863.863,0,0,1-.585.843c-.728.267-1.462.518-2.2.772l-18.309,6.333c-.928.321-1.865.616-2.78.969a.962.962,0,0,1-1.346-.948c.038-2.015.019-4.031.009-6.047a.981.981,0,0,1,.6-.982c.548-.263,1.088-.544,1.631-.818C-547.512,509.658-547.451,509.621-547.349,509.564Zm-.657,6.843,19.642-6.8v-.068l-19.61-6.792a.45.45,0,0,0-.028.087c0,1.406-.006,2.812,0,4.217a.376.376,0,0,0,.192.255q1.385.711,2.782,1.4a.938.938,0,0,1,.618.857.933.933,0,0,1-.614.888c-.931.459-1.858.926-2.791,1.382a.3.3,0,0,0-.2.321c.008.928,0,1.856,0,2.783Z" transform="translate(2915.819 779.43)" fill="#fff"/>
  </g>
</svg>
